<mxfile host="65bd71144e" modified="2020-11-07T14:55:21.944Z" agent="5.0 (Macintosh; Intel Mac OS X 10_15_6) AppleWebKit/537.36 (KHTML, like Gecko) Code/1.49.1 Chrome/83.0.4103.122 Electron/9.2.1 Safari/537.36" etag="q2JwPtSuEHey7tKgw_Ry" version="13.6.5" pages="5">
    <diagram id="6hGFLwfOUW9BJ-s0fimq" name="Overview">
        <mxGraphModel dx="566" dy="1135" grid="1" gridSize="10" guides="1" tooltips="1" connect="1" arrows="1" fold="1" page="1" pageScale="1" pageWidth="827" pageHeight="1169" math="0" shadow="0">
            <root>
                <mxCell id="0"/>
                <mxCell id="1" parent="0"/>
                <mxCell id="7" value="Process Payment Message" style="edgeStyle=orthogonalEdgeStyle;rounded=0;orthogonalLoop=1;jettySize=auto;html=1;entryX=0.5;entryY=0;entryDx=0;entryDy=0;exitX=0.087;exitY=0.997;exitDx=0;exitDy=0;exitPerimeter=0;" parent="1" source="2" target="6" edge="1">
                    <mxGeometry relative="1" as="geometry">
                        <mxPoint x="290" y="170" as="sourcePoint"/>
                        <Array as="points">
                            <mxPoint x="290" y="160"/>
                        </Array>
                    </mxGeometry>
                </mxCell>
                <mxCell id="23" style="edgeStyle=orthogonalEdgeStyle;rounded=0;orthogonalLoop=1;jettySize=auto;html=1;exitX=0.75;exitY=1;exitDx=0;exitDy=0;entryX=0.5;entryY=0;entryDx=0;entryDy=0;" parent="1" source="2" target="22" edge="1">
                    <mxGeometry relative="1" as="geometry"/>
                </mxCell>
                <mxCell id="24" value="Claim Album" style="edgeLabel;html=1;align=center;verticalAlign=middle;resizable=0;points=[];" parent="23" vertex="1" connectable="0">
                    <mxGeometry x="-0.3744" y="-1" relative="1" as="geometry">
                        <mxPoint as="offset"/>
                    </mxGeometry>
                </mxCell>
                <mxCell id="2" value="PayMeController" style="whiteSpace=wrap;html=1;fillColor=#76608a;strokeColor=#432D57;fontColor=#ffffff;" parent="1" vertex="1">
                    <mxGeometry x="260" y="100" width="210" height="60" as="geometry"/>
                </mxCell>
                <mxCell id="4" style="edgeStyle=orthogonalEdgeStyle;rounded=0;orthogonalLoop=1;jettySize=auto;html=1;entryX=0;entryY=0.5;entryDx=0;entryDy=0;" parent="1" source="3" target="2" edge="1">
                    <mxGeometry relative="1" as="geometry"/>
                </mxCell>
                <mxCell id="5" value="Mpamba/AM Receipt" style="edgeLabel;html=1;align=center;verticalAlign=middle;resizable=0;points=[];" parent="4" vertex="1" connectable="0">
                    <mxGeometry x="-0.46" relative="1" as="geometry">
                        <mxPoint x="40" as="offset"/>
                    </mxGeometry>
                </mxCell>
                <mxCell id="3" value="&lt;br&gt;SMS&lt;br&gt;App" style="html=1;aspect=fixed;strokeColor=none;shadow=0;align=center;verticalAlign=top;fillColor=#3B8DF1;shape=mxgraph.gcp2.phone_android" parent="1" vertex="1">
                    <mxGeometry x="40" y="80" width="56" height="100" as="geometry"/>
                </mxCell>
                <mxCell id="18" style="edgeStyle=orthogonalEdgeStyle;rounded=0;orthogonalLoop=1;jettySize=auto;html=1;entryX=0.5;entryY=0;entryDx=0;entryDy=0;entryPerimeter=0;" parent="1" source="6" target="17" edge="1">
                    <mxGeometry relative="1" as="geometry"/>
                </mxCell>
                <mxCell id="19" value="PaymentRecord" style="edgeLabel;html=1;align=center;verticalAlign=middle;resizable=0;points=[];" parent="18" vertex="1" connectable="0">
                    <mxGeometry x="-0.2352" relative="1" as="geometry">
                        <mxPoint as="offset"/>
                    </mxGeometry>
                </mxCell>
                <mxCell id="6" value="PaymentMessageProcessor" style="whiteSpace=wrap;html=1;fillColor=#f5f5f5;strokeColor=#666666;fontColor=#333333;" parent="1" vertex="1">
                    <mxGeometry x="210" y="220" width="160" height="60" as="geometry"/>
                </mxCell>
                <mxCell id="11" style="edgeStyle=orthogonalEdgeStyle;rounded=0;orthogonalLoop=1;jettySize=auto;html=1;entryX=0.403;entryY=0.999;entryDx=0;entryDy=0;entryPerimeter=0;" parent="1" source="8" target="10" edge="1">
                    <mxGeometry relative="1" as="geometry"/>
                </mxCell>
                <mxCell id="12" value="Pay Liwu 5000" style="edgeLabel;html=1;align=center;verticalAlign=middle;resizable=0;points=[];" parent="11" vertex="1" connectable="0">
                    <mxGeometry x="-0.0292" y="3" relative="1" as="geometry">
                        <mxPoint as="offset"/>
                    </mxGeometry>
                </mxCell>
                <mxCell id="20" style="edgeStyle=orthogonalEdgeStyle;rounded=0;orthogonalLoop=1;jettySize=auto;html=1;entryX=1;entryY=0.5;entryDx=0;entryDy=0;" parent="1" source="8" target="2" edge="1">
                    <mxGeometry relative="1" as="geometry">
                        <Array as="points">
                            <mxPoint x="570" y="450"/>
                            <mxPoint x="570" y="130"/>
                        </Array>
                    </mxGeometry>
                </mxCell>
                <mxCell id="21" value="Claim Album&lt;br&gt;with Transaction" style="edgeLabel;html=1;align=center;verticalAlign=middle;resizable=0;points=[];" parent="20" vertex="1" connectable="0">
                    <mxGeometry x="0.499" y="1" relative="1" as="geometry">
                        <mxPoint as="offset"/>
                    </mxGeometry>
                </mxCell>
                <mxCell id="8" value="&lt;br&gt;MyFan" style="html=1;aspect=fixed;strokeColor=none;shadow=0;align=center;verticalAlign=top;fillColor=#3B8DF1;shape=mxgraph.gcp2.phone_android" parent="1" vertex="1">
                    <mxGeometry x="40" y="400" width="56" height="100" as="geometry"/>
                </mxCell>
                <mxCell id="13" style="edgeStyle=orthogonalEdgeStyle;rounded=0;orthogonalLoop=1;jettySize=auto;html=1;entryX=0.72;entryY=0.969;entryDx=0;entryDy=0;entryPerimeter=0;" parent="1" source="10" target="3" edge="1">
                    <mxGeometry relative="1" as="geometry"/>
                </mxCell>
                <mxCell id="16" value="Payment&lt;br&gt;Notification&lt;br&gt;SMS" style="edgeLabel;html=1;align=center;verticalAlign=middle;resizable=0;points=[];" parent="13" vertex="1" connectable="0">
                    <mxGeometry x="-0.0336" y="-1" relative="1" as="geometry">
                        <mxPoint x="-1" y="1" as="offset"/>
                    </mxGeometry>
                </mxCell>
                <mxCell id="14" style="edgeStyle=orthogonalEdgeStyle;rounded=0;orthogonalLoop=1;jettySize=auto;html=1;exitX=0.75;exitY=1;exitDx=0;exitDy=0;" parent="1" source="10" edge="1">
                    <mxGeometry relative="1" as="geometry">
                        <mxPoint x="96" y="430" as="targetPoint"/>
                        <Array as="points">
                            <mxPoint x="140" y="320"/>
                            <mxPoint x="140" y="430"/>
                            <mxPoint x="96" y="430"/>
                        </Array>
                    </mxGeometry>
                </mxCell>
                <mxCell id="15" value="Payment&lt;br&gt;Receipt&lt;br&gt;SMS" style="edgeLabel;html=1;align=center;verticalAlign=middle;resizable=0;points=[];" parent="14" vertex="1" connectable="0">
                    <mxGeometry x="-0.2735" y="2" relative="1" as="geometry">
                        <mxPoint as="offset"/>
                    </mxGeometry>
                </mxCell>
                <mxCell id="10" value="Mpamba" style="whiteSpace=wrap;html=1;" parent="1" vertex="1">
                    <mxGeometry x="20" y="260" width="120" height="60" as="geometry"/>
                </mxCell>
                <mxCell id="17" value="" style="strokeWidth=2;html=1;shape=mxgraph.flowchart.database;whiteSpace=wrap;fillColor=#1ba1e2;strokeColor=#006EAF;fontColor=#ffffff;" parent="1" vertex="1">
                    <mxGeometry x="335" y="340" width="60" height="60" as="geometry"/>
                </mxCell>
                <mxCell id="25" style="edgeStyle=orthogonalEdgeStyle;rounded=0;orthogonalLoop=1;jettySize=auto;html=1;entryX=1;entryY=0.5;entryDx=0;entryDy=0;entryPerimeter=0;" parent="1" source="22" target="17" edge="1">
                    <mxGeometry relative="1" as="geometry"/>
                </mxCell>
                <mxCell id="27" style="edgeStyle=orthogonalEdgeStyle;rounded=0;orthogonalLoop=1;jettySize=auto;html=1;exitX=0.75;exitY=1;exitDx=0;exitDy=0;entryX=0.5;entryY=0;entryDx=0;entryDy=0;" parent="1" source="22" target="26" edge="1">
                    <mxGeometry relative="1" as="geometry"/>
                </mxCell>
                <mxCell id="28" value="Release Album" style="edgeLabel;html=1;align=center;verticalAlign=middle;resizable=0;points=[];" parent="27" vertex="1" connectable="0">
                    <mxGeometry x="-0.4299" y="1" relative="1" as="geometry">
                        <mxPoint x="9" as="offset"/>
                    </mxGeometry>
                </mxCell>
                <mxCell id="22" value="AlbumClaimValidator" style="whiteSpace=wrap;html=1;fillColor=#f5f5f5;strokeColor=#666666;fontColor=#333333;" parent="1" vertex="1">
                    <mxGeometry x="380" y="220" width="120" height="60" as="geometry"/>
                </mxCell>
                <mxCell id="29" style="edgeStyle=orthogonalEdgeStyle;rounded=0;orthogonalLoop=1;jettySize=auto;html=1;entryX=0.577;entryY=1.018;entryDx=0;entryDy=0;entryPerimeter=0;" parent="1" source="26" target="8" edge="1">
                    <mxGeometry relative="1" as="geometry">
                        <Array as="points">
                            <mxPoint x="500" y="530"/>
                            <mxPoint x="72" y="530"/>
                        </Array>
                    </mxGeometry>
                </mxCell>
                <mxCell id="30" value="Email with Album in Attachment" style="edgeLabel;html=1;align=center;verticalAlign=middle;resizable=0;points=[];" parent="29" vertex="1" connectable="0">
                    <mxGeometry x="0.2541" y="-2" relative="1" as="geometry">
                        <mxPoint as="offset"/>
                    </mxGeometry>
                </mxCell>
                <mxCell id="26" value="Mailor" style="whiteSpace=wrap;html=1;fillColor=#008a00;strokeColor=#005700;fontColor=#ffffff;" parent="1" vertex="1">
                    <mxGeometry x="460" y="330" width="80" height="60" as="geometry"/>
                </mxCell>
            </root>
        </mxGraphModel>
    </diagram>
    <diagram id="WUsLaUwIkepgnX39U3gD" name="Mediator">
        &#xa;        &#xa;        &#xa;
        <mxGraphModel dx="914" dy="759" grid="1" gridSize="10" guides="1" tooltips="1" connect="1" arrows="1" fold="1" page="1" pageScale="1" pageWidth="850" pageHeight="1100" math="0" shadow="0">
            &#xa;            &#xa;            &#xa;
            <root>
                &#xa;                &#xa;                &#xa;
                <mxCell id="N0UknE3Dih1A0OrLGlwD-0"/>
                &#xa;                &#xa;                &#xa;
                <mxCell id="N0UknE3Dih1A0OrLGlwD-1" parent="N0UknE3Dih1A0OrLGlwD-0"/>
                &#xa;                &#xa;                &#xa;
                <mxCell id="N0UknE3Dih1A0OrLGlwD-7" value="" style="whiteSpace=wrap;html=1;fillColor=#76608a;strokeColor=#432D57;fontColor=#ffffff;" parent="N0UknE3Dih1A0OrLGlwD-1" vertex="1">
                    &#xa;                    &#xa;                    &#xa;
                    <mxGeometry x="30" y="380" width="780" height="270" as="geometry"/>
                    &#xa;                    &#xa;                &#xa;
                </mxCell>
                &#xa;                &#xa;                &#xa;
                <mxCell id="N0UknE3Dih1A0OrLGlwD-12" style="edgeStyle=orthogonalEdgeStyle;rounded=0;orthogonalLoop=1;jettySize=auto;html=1;exitX=1;exitY=0.5;exitDx=0;exitDy=0;" parent="N0UknE3Dih1A0OrLGlwD-1" source="N0UknE3Dih1A0OrLGlwD-2" target="N0UknE3Dih1A0OrLGlwD-5" edge="1">
                    &#xa;                    &#xa;                    &#xa;
                    <mxGeometry relative="1" as="geometry"/>
                    &#xa;                    &#xa;                &#xa;
                </mxCell>
                &#xa;                &#xa;                &#xa;
                <mxCell id="N0UknE3Dih1A0OrLGlwD-2" value="MediatR" style="whiteSpace=wrap;html=1;" parent="N0UknE3Dih1A0OrLGlwD-1" vertex="1">
                    &#xa;                    &#xa;                    &#xa;
                    <mxGeometry x="353" y="280" width="145" height="60" as="geometry"/>
                    &#xa;                    &#xa;                &#xa;
                </mxCell>
                &#xa;                &#xa;                &#xa;
                <mxCell id="N0UknE3Dih1A0OrLGlwD-3" value="Payment" style="whiteSpace=wrap;html=1;" parent="N0UknE3Dih1A0OrLGlwD-1" vertex="1">
                    &#xa;                    &#xa;                    &#xa;
                    <mxGeometry x="140" y="430" width="120" height="60" as="geometry"/>
                    &#xa;                    &#xa;                &#xa;
                </mxCell>
                &#xa;                &#xa;                &#xa;
                <mxCell id="N0UknE3Dih1A0OrLGlwD-4" value="SMS" style="whiteSpace=wrap;html=1;" parent="N0UknE3Dih1A0OrLGlwD-1" vertex="1">
                    &#xa;                    &#xa;                    &#xa;
                    <mxGeometry x="570" y="430" width="120" height="60" as="geometry"/>
                    &#xa;                    &#xa;                &#xa;
                </mxCell>
                &#xa;                &#xa;                &#xa;
                <mxCell id="N0UknE3Dih1A0OrLGlwD-5" value="ProcessMessage" style="whiteSpace=wrap;html=1;" parent="N0UknE3Dih1A0OrLGlwD-1" vertex="1">
                    &#xa;                    &#xa;                    &#xa;
                    <mxGeometry x="640" y="530" width="120" height="60" as="geometry"/>
                    &#xa;                    &#xa;                &#xa;
                </mxCell>
                &#xa;                &#xa;                &#xa;
                <mxCell id="N0UknE3Dih1A0OrLGlwD-6" value="FetchAllMessages" style="whiteSpace=wrap;html=1;" parent="N0UknE3Dih1A0OrLGlwD-1" vertex="1">
                    &#xa;                    &#xa;                    &#xa;
                    <mxGeometry x="490" y="530" width="120" height="60" as="geometry"/>
                    &#xa;                    &#xa;                &#xa;
                </mxCell>
                &#xa;                &#xa;                &#xa;
                <mxCell id="N0UknE3Dih1A0OrLGlwD-8" value="ProcessPayments" style="whiteSpace=wrap;html=1;" parent="N0UknE3Dih1A0OrLGlwD-1" vertex="1">
                    &#xa;                    &#xa;                    &#xa;
                    <mxGeometry x="70" y="530" width="120" height="60" as="geometry"/>
                    &#xa;                    &#xa;                &#xa;
                </mxCell>
                &#xa;                &#xa;                &#xa;
                <mxCell id="N0UknE3Dih1A0OrLGlwD-10" value="Send(new ProcessMessage(SMSBody))" style="edgeStyle=orthogonalEdgeStyle;rounded=0;orthogonalLoop=1;jettySize=auto;html=1;entryX=0.5;entryY=0;entryDx=0;entryDy=0;" parent="N0UknE3Dih1A0OrLGlwD-1" source="N0UknE3Dih1A0OrLGlwD-9" target="N0UknE3Dih1A0OrLGlwD-2" edge="1">
                    &#xa;                    &#xa;                    &#xa;
                    <mxGeometry relative="1" as="geometry"/>
                    &#xa;                    &#xa;                &#xa;
                </mxCell>
                &#xa;                &#xa;                &#xa;
                <mxCell id="N0UknE3Dih1A0OrLGlwD-9" value="Presentation" style="whiteSpace=wrap;html=1;" parent="N0UknE3Dih1A0OrLGlwD-1" vertex="1">
                    &#xa;                    &#xa;                    &#xa;
                    <mxGeometry x="365" y="100" width="120" height="60" as="geometry"/>
                    &#xa;                    &#xa;                &#xa;
                </mxCell>
                &#xa;                &#xa;                &#xa;
                <mxCell id="N0UknE3Dih1A0OrLGlwD-13" value="" style="whiteSpace=wrap;html=1;fillColor=#6d8764;strokeColor=#3A5431;fontColor=#ffffff;" parent="N0UknE3Dih1A0OrLGlwD-1" vertex="1">
                    &#xa;                    &#xa;                    &#xa;
                    <mxGeometry x="30" y="700" width="780" height="190" as="geometry"/>
                    &#xa;                    &#xa;                &#xa;
                </mxCell>
                &#xa;                &#xa;                &#xa;
                <mxCell id="N0UknE3Dih1A0OrLGlwD-14" value="SMS" style="whiteSpace=wrap;html=1;" parent="N0UknE3Dih1A0OrLGlwD-1" vertex="1">
                    &#xa;                    &#xa;                    &#xa;
                    <mxGeometry x="570" y="740" width="120" height="60" as="geometry"/>
                    &#xa;                    &#xa;                &#xa;
                </mxCell>
                &#xa;                &#xa;                &#xa;
                <mxCell id="N0UknE3Dih1A0OrLGlwD-15" value="SMSService" style="whiteSpace=wrap;html=1;" parent="N0UknE3Dih1A0OrLGlwD-1" vertex="1">
                    &#xa;                    &#xa;                    &#xa;
                    <mxGeometry x="570" y="820" width="120" height="60" as="geometry"/>
                    &#xa;                    &#xa;                &#xa;
                </mxCell>
                &#xa;                &#xa;                &#xa;
                <mxCell id="N0UknE3Dih1A0OrLGlwD-16" value="MpambaService" style="whiteSpace=wrap;html=1;" parent="N0UknE3Dih1A0OrLGlwD-1" vertex="1">
                    &#xa;                    &#xa;                    &#xa;
                    <mxGeometry x="60" y="820" width="120" height="60" as="geometry"/>
                    &#xa;                    &#xa;                &#xa;
                </mxCell>
                &#xa;                &#xa;                &#xa;
                <mxCell id="N0UknE3Dih1A0OrLGlwD-17" value="Payment" style="whiteSpace=wrap;html=1;" parent="N0UknE3Dih1A0OrLGlwD-1" vertex="1">
                    &#xa;                    &#xa;                    &#xa;
                    <mxGeometry x="140" y="740" width="120" height="60" as="geometry"/>
                    &#xa;                    &#xa;                &#xa;
                </mxCell>
                &#xa;                &#xa;                &#xa;
                <mxCell id="N0UknE3Dih1A0OrLGlwD-18" value="AirtelMoney" style="whiteSpace=wrap;html=1;" parent="N0UknE3Dih1A0OrLGlwD-1" vertex="1">
                    &#xa;                    &#xa;                    &#xa;
                    <mxGeometry x="190" y="820" width="120" height="60" as="geometry"/>
                    &#xa;                    &#xa;                &#xa;
                </mxCell>
                &#xa;                &#xa;            &#xa;
            </root>
            &#xa;            &#xa;        &#xa;
        </mxGraphModel>
        &#xa;        &#xa;    &#xa;
    </diagram>
    <diagram id="Wze1rW8z5C9PiDYnw7GT" name="Claims">
        &#xa;
        <mxGraphModel dx="624" dy="531" grid="1" gridSize="10" guides="1" tooltips="1" connect="1" arrows="1" fold="1" page="1" pageScale="1" pageWidth="850" pageHeight="1100" math="0" shadow="0">
            &#xa;
            <root>
                &#xa;
                <mxCell id="kn37Ca2dQK6pbfP-1nsK-0"/>
                &#xa;
                <mxCell id="kn37Ca2dQK6pbfP-1nsK-1" parent="kn37Ca2dQK6pbfP-1nsK-0"/>
                &#xa;
                <mxCell id="CqoIMUN6eEzT9O_xCBNW-0" style="edgeStyle=orthogonalEdgeStyle;rounded=0;orthogonalLoop=1;jettySize=auto;html=1;entryX=0.891;entryY=-0.051;entryDx=0;entryDy=0;entryPerimeter=0;" parent="kn37Ca2dQK6pbfP-1nsK-1" source="kn37Ca2dQK6pbfP-1nsK-2" target="kn37Ca2dQK6pbfP-1nsK-3" edge="1">
                    &#xa;
                    <mxGeometry relative="1" as="geometry"/>
                    &#xa;
                </mxCell>
                &#xa;
                <mxCell id="kn37Ca2dQK6pbfP-1nsK-2" value="ClaimsController&lt;br&gt;1. CustomerEmail&lt;br&gt;2. Reference Number&lt;br&gt;3. ProductReference i.e. CheckoutID" style="whiteSpace=wrap;html=1;" parent="kn37Ca2dQK6pbfP-1nsK-1" vertex="1">
                    &#xa;
                    <mxGeometry x="310" y="70" width="350" height="70" as="geometry"/>
                    &#xa;
                </mxCell>
                &#xa;
                <mxCell id="kn37Ca2dQK6pbfP-1nsK-5" style="edgeStyle=orthogonalEdgeStyle;rounded=0;orthogonalLoop=1;jettySize=auto;html=1;entryX=1;entryY=0.5;entryDx=0;entryDy=0;" parent="kn37Ca2dQK6pbfP-1nsK-1" source="kn37Ca2dQK6pbfP-1nsK-3" target="kn37Ca2dQK6pbfP-1nsK-4" edge="1">
                    &#xa;
                    <mxGeometry relative="1" as="geometry"/>
                    &#xa;
                </mxCell>
                &#xa;
                <mxCell id="kn37Ca2dQK6pbfP-1nsK-6" value="FetchPrice HTTP" style="edgeLabel;html=1;align=center;verticalAlign=middle;resizable=0;points=[];" parent="kn37Ca2dQK6pbfP-1nsK-5" vertex="1" connectable="0">
                    &#xa;
                    <mxGeometry x="-0.0108" y="-1" relative="1" as="geometry">
                        &#xa;
                        <mxPoint as="offset"/>
                        &#xa;
                    </mxGeometry>
                    &#xa;
                </mxCell>
                &#xa;
                <mxCell id="kn37Ca2dQK6pbfP-1nsK-9" style="edgeStyle=orthogonalEdgeStyle;rounded=0;orthogonalLoop=1;jettySize=auto;html=1;" parent="kn37Ca2dQK6pbfP-1nsK-1" source="kn37Ca2dQK6pbfP-1nsK-3" target="kn37Ca2dQK6pbfP-1nsK-8" edge="1">
                    &#xa;
                    <mxGeometry relative="1" as="geometry"/>
                    &#xa;
                </mxCell>
                &#xa;
                <mxCell id="kn37Ca2dQK6pbfP-1nsK-11" value="FetchPaymentsByReference" style="edgeLabel;html=1;align=center;verticalAlign=middle;resizable=0;points=[];" parent="kn37Ca2dQK6pbfP-1nsK-9" vertex="1" connectable="0">
                    &#xa;
                    <mxGeometry x="0.366" y="1" relative="1" as="geometry">
                        &#xa;
                        <mxPoint as="offset"/>
                        &#xa;
                    </mxGeometry>
                    &#xa;
                </mxCell>
                &#xa;
                <mxCell id="kn37Ca2dQK6pbfP-1nsK-15" style="edgeStyle=orthogonalEdgeStyle;rounded=0;orthogonalLoop=1;jettySize=auto;html=1;exitX=0.5;exitY=0;exitDx=0;exitDy=0;entryX=0.089;entryY=1.027;entryDx=0;entryDy=0;entryPerimeter=0;" parent="kn37Ca2dQK6pbfP-1nsK-1" source="kn37Ca2dQK6pbfP-1nsK-3" target="kn37Ca2dQK6pbfP-1nsK-2" edge="1">
                    &#xa;
                    <mxGeometry relative="1" as="geometry">
                        &#xa;
                        <mxPoint x="340" y="154" as="targetPoint"/>
                        &#xa;
                    </mxGeometry>
                    &#xa;
                </mxCell>
                &#xa;
                <mxCell id="kn37Ca2dQK6pbfP-1nsK-16" value="1. More Money Will Refund Later" style="edgeLabel;html=1;align=center;verticalAlign=middle;resizable=0;points=[];" parent="kn37Ca2dQK6pbfP-1nsK-15" vertex="1" connectable="0">
                    &#xa;
                    <mxGeometry x="0.5169" y="-4" relative="1" as="geometry">
                        &#xa;
                        <mxPoint as="offset"/>
                        &#xa;
                    </mxGeometry>
                    &#xa;
                </mxCell>
                &#xa;
                <mxCell id="kn37Ca2dQK6pbfP-1nsK-19" style="edgeStyle=orthogonalEdgeStyle;rounded=0;orthogonalLoop=1;jettySize=auto;html=1;exitX=1;exitY=0.25;exitDx=0;exitDy=0;entryX=0.883;entryY=1.031;entryDx=0;entryDy=0;entryPerimeter=0;" parent="kn37Ca2dQK6pbfP-1nsK-1" source="kn37Ca2dQK6pbfP-1nsK-3" target="kn37Ca2dQK6pbfP-1nsK-2" edge="1">
                    &#xa;
                    <mxGeometry relative="1" as="geometry">
                        &#xa;
                        <mxPoint x="590" y="160" as="targetPoint"/>
                        &#xa;
                    </mxGeometry>
                    &#xa;
                </mxCell>
                &#xa;
                <mxCell id="kn37Ca2dQK6pbfP-1nsK-20" value="2. Less Money" style="edgeLabel;html=1;align=center;verticalAlign=middle;resizable=0;points=[];" parent="kn37Ca2dQK6pbfP-1nsK-19" vertex="1" connectable="0">
                    &#xa;
                    <mxGeometry x="0.7236" y="1" relative="1" as="geometry">
                        &#xa;
                        <mxPoint as="offset"/>
                        &#xa;
                    </mxGeometry>
                    &#xa;
                </mxCell>
                &#xa;
                <mxCell id="CqoIMUN6eEzT9O_xCBNW-4" value="ClaimHandledEvent(refundAmount, shouldShip, paymentId)" style="edgeStyle=orthogonalEdgeStyle;rounded=0;orthogonalLoop=1;jettySize=auto;html=1;" parent="kn37Ca2dQK6pbfP-1nsK-1" source="kn37Ca2dQK6pbfP-1nsK-3" target="CqoIMUN6eEzT9O_xCBNW-3" edge="1">
                    &#xa;
                    <mxGeometry relative="1" as="geometry"/>
                    &#xa;
                </mxCell>
                &#xa;
                <mxCell id="kn37Ca2dQK6pbfP-1nsK-3" value="ClaimsHandler" style="whiteSpace=wrap;html=1;fillColor=#008a00;strokeColor=#005700;fontColor=#ffffff;" parent="kn37Ca2dQK6pbfP-1nsK-1" vertex="1">
                    &#xa;
                    <mxGeometry x="310" y="230" width="120" height="60" as="geometry"/>
                    &#xa;
                </mxCell>
                &#xa;
                <mxCell id="kn37Ca2dQK6pbfP-1nsK-4" value="External&lt;br&gt;Product&lt;br&gt;Service" style="whiteSpace=wrap;html=1;dashed=1;fillColor=#fa6800;strokeColor=#C73500;fontColor=#ffffff;" parent="kn37Ca2dQK6pbfP-1nsK-1" vertex="1">
                    &#xa;
                    <mxGeometry x="130" y="90" width="80" height="200" as="geometry"/>
                    &#xa;
                </mxCell>
                &#xa;
                <mxCell id="kn37Ca2dQK6pbfP-1nsK-8" value="Payments" style="strokeWidth=2;html=1;shape=mxgraph.flowchart.database;whiteSpace=wrap;" parent="kn37Ca2dQK6pbfP-1nsK-1" vertex="1">
                    &#xa;
                    <mxGeometry x="660" y="370" width="90" height="60" as="geometry"/>
                    &#xa;
                </mxCell>
                &#xa;
                <mxCell id="CqoIMUN6eEzT9O_xCBNW-8" style="edgeStyle=orthogonalEdgeStyle;rounded=0;orthogonalLoop=1;jettySize=auto;html=1;entryX=0.5;entryY=0;entryDx=0;entryDy=0;" parent="kn37Ca2dQK6pbfP-1nsK-1" source="CqoIMUN6eEzT9O_xCBNW-1" target="CqoIMUN6eEzT9O_xCBNW-7" edge="1">
                    &#xa;
                    <mxGeometry relative="1" as="geometry"/>
                    &#xa;
                </mxCell>
                &#xa;
                <mxCell id="CqoIMUN6eEzT9O_xCBNW-9" value="RefundAmountToSomeone" style="edgeLabel;html=1;align=center;verticalAlign=middle;resizable=0;points=[];" parent="CqoIMUN6eEzT9O_xCBNW-8" vertex="1" connectable="0">
                    &#xa;
                    <mxGeometry x="-0.5024" relative="1" as="geometry">
                        &#xa;
                        <mxPoint as="offset"/>
                        &#xa;
                    </mxGeometry>
                    &#xa;
                </mxCell>
                &#xa;
                <mxCell id="CqoIMUN6eEzT9O_xCBNW-1" value="RefundHandler" style="whiteSpace=wrap;html=1;fillColor=#008a00;strokeColor=#005700;fontColor=#ffffff;" parent="kn37Ca2dQK6pbfP-1nsK-1" vertex="1">
                    &#xa;
                    <mxGeometry x="140" y="340" width="120" height="60" as="geometry"/>
                    &#xa;
                </mxCell>
                &#xa;
                <mxCell id="CqoIMUN6eEzT9O_xCBNW-10" style="edgeStyle=orthogonalEdgeStyle;rounded=0;orthogonalLoop=1;jettySize=auto;html=1;entryX=0.5;entryY=0;entryDx=0;entryDy=0;" parent="kn37Ca2dQK6pbfP-1nsK-1" source="CqoIMUN6eEzT9O_xCBNW-2" target="CqoIMUN6eEzT9O_xCBNW-13" edge="1">
                    &#xa;
                    <mxGeometry relative="1" as="geometry"/>
                    &#xa;
                </mxCell>
                &#xa;
                <mxCell id="CqoIMUN6eEzT9O_xCBNW-11" value="Send User" style="edgeLabel;html=1;align=center;verticalAlign=middle;resizable=0;points=[];" parent="CqoIMUN6eEzT9O_xCBNW-10" vertex="1" connectable="0">
                    &#xa;
                    <mxGeometry x="0.1026" y="2" relative="1" as="geometry">
                        &#xa;
                        <mxPoint as="offset"/>
                        &#xa;
                    </mxGeometry>
                    &#xa;
                </mxCell>
                &#xa;
                <mxCell id="mHRnf604AWt8b4Jgg2uy-0" style="edgeStyle=orthogonalEdgeStyle;rounded=0;orthogonalLoop=1;jettySize=auto;html=1;entryX=0;entryY=0.5;entryDx=0;entryDy=0;entryPerimeter=0;fontSize=12;" edge="1" parent="kn37Ca2dQK6pbfP-1nsK-1" source="CqoIMUN6eEzT9O_xCBNW-2" target="kn37Ca2dQK6pbfP-1nsK-8">
                    &#xa;
                    <mxGeometry relative="1" as="geometry"/>
                    &#xa;
                </mxCell>
                &#xa;
                <mxCell id="mHRnf604AWt8b4Jgg2uy-1" value="paymentClaimed" style="edgeLabel;html=1;align=center;verticalAlign=middle;resizable=0;points=[];fontSize=12;" vertex="1" connectable="0" parent="mHRnf604AWt8b4Jgg2uy-0">
                    &#xa;
                    <mxGeometry x="-0.0363" y="-2" relative="1" as="geometry">
                        &#xa;
                        <mxPoint as="offset"/>
                        &#xa;
                    </mxGeometry>
                    &#xa;
                </mxCell>
                &#xa;
                <mxCell id="CqoIMUN6eEzT9O_xCBNW-2" value="ShippingHandler" style="whiteSpace=wrap;html=1;fillColor=#008a00;strokeColor=#005700;fontColor=#ffffff;" parent="kn37Ca2dQK6pbfP-1nsK-1" vertex="1">
                    &#xa;
                    <mxGeometry x="430" y="440" width="120" height="60" as="geometry"/>
                    &#xa;
                </mxCell>
                &#xa;
                <mxCell id="CqoIMUN6eEzT9O_xCBNW-5" style="edgeStyle=orthogonalEdgeStyle;rounded=0;orthogonalLoop=1;jettySize=auto;html=1;entryX=1;entryY=0.5;entryDx=0;entryDy=0;" parent="kn37Ca2dQK6pbfP-1nsK-1" source="CqoIMUN6eEzT9O_xCBNW-3" target="CqoIMUN6eEzT9O_xCBNW-1" edge="1">
                    &#xa;
                    <mxGeometry relative="1" as="geometry"/>
                    &#xa;
                </mxCell>
                &#xa;
                <mxCell id="CqoIMUN6eEzT9O_xCBNW-6" style="edgeStyle=orthogonalEdgeStyle;rounded=0;orthogonalLoop=1;jettySize=auto;html=1;entryX=0.5;entryY=0;entryDx=0;entryDy=0;" parent="kn37Ca2dQK6pbfP-1nsK-1" source="CqoIMUN6eEzT9O_xCBNW-3" target="CqoIMUN6eEzT9O_xCBNW-2" edge="1">
                    &#xa;
                    <mxGeometry relative="1" as="geometry">
                        &#xa;
                        <mxPoint x="380" y="490" as="targetPoint"/>
                        &#xa;
                        <Array as="points"/>
                        &#xa;
                    </mxGeometry>
                    &#xa;
                </mxCell>
                &#xa;
                <mxCell id="CqoIMUN6eEzT9O_xCBNW-3" value="Mediator" style="whiteSpace=wrap;html=1;" parent="kn37Ca2dQK6pbfP-1nsK-1" vertex="1">
                    &#xa;
                    <mxGeometry x="320" y="350" width="90" height="40" as="geometry"/>
                    &#xa;
                </mxCell>
                &#xa;
                <mxCell id="CqoIMUN6eEzT9O_xCBNW-7" value="Mailor" style="whiteSpace=wrap;html=1;" parent="kn37Ca2dQK6pbfP-1nsK-1" vertex="1">
                    &#xa;
                    <mxGeometry x="190" y="490" width="120" height="60" as="geometry"/>
                    &#xa;
                </mxCell>
                &#xa;
                <mxCell id="CqoIMUN6eEzT9O_xCBNW-13" value="External Callbak" style="whiteSpace=wrap;html=1;fillColor=#fa6800;strokeColor=#C73500;fontColor=#ffffff;" parent="kn37Ca2dQK6pbfP-1nsK-1" vertex="1">
                    &#xa;
                    <mxGeometry x="440" y="560" width="120" height="60" as="geometry"/>
                    &#xa;
                </mxCell>
                &#xa;
            </root>
            &#xa;
        </mxGraphModel>
        &#xa;
    </diagram>
    <diagram id="2kco7uaKRukSX8g-b-Zi" name="Checkout Form 1">
        &#xa;
        <mxGraphModel dx="624" dy="531" grid="1" gridSize="10" guides="1" tooltips="1" connect="1" arrows="1" fold="1" page="1" pageScale="1" pageWidth="850" pageHeight="1100" math="0" shadow="0">
            &#xa;
            <root>
                &#xa;
                <mxCell id="oim0mf0or64xTcXel2u4-0"/>
                &#xa;
                <mxCell id="oim0mf0or64xTcXel2u4-1" parent="oim0mf0or64xTcXel2u4-0"/>
                &#xa;
                <mxCell id="oim0mf0or64xTcXel2u4-2" value="" style="whiteSpace=wrap;html=1;" vertex="1" parent="oim0mf0or64xTcXel2u4-1">
                    &#xa;
                    <mxGeometry x="120" y="20" width="400" height="360" as="geometry"/>
                    &#xa;
                </mxCell>
                &#xa;
                <mxCell id="oim0mf0or64xTcXel2u4-3" value="&lt;br&gt;STEP 1&lt;br&gt;&lt;br&gt;Send Money to My Mpamba on Number&lt;br&gt;&lt;br&gt;*626*1*0888123456*5000#" style="text;html=1;resizable=0;autosize=1;align=center;verticalAlign=middle;points=[];fillColor=none;strokeColor=none;rounded=0;fontSize=17;" vertex="1" parent="oim0mf0or64xTcXel2u4-1">
                    &#xa;
                    <mxGeometry x="160" y="100" width="320" height="120" as="geometry"/>
                    &#xa;
                </mxCell>
                &#xa;
                <mxCell id="oim0mf0or64xTcXel2u4-5" value="Text" style="text;html=1;resizable=0;autosize=1;align=center;verticalAlign=middle;points=[];fillColor=none;strokeColor=none;rounded=0;" vertex="1" parent="oim0mf0or64xTcXel2u4-1">
                    &#xa;
                    <mxGeometry x="120" y="560" width="40" height="20" as="geometry"/>
                    &#xa;
                </mxCell>
                &#xa;
                <mxCell id="oim0mf0or64xTcXel2u4-7" value="NEXT" style="whiteSpace=wrap;html=1;fillColor=#e3c800;strokeColor=#B09500;fontColor=#ffffff;" vertex="1" parent="oim0mf0or64xTcXel2u4-1">
                    &#xa;
                    <mxGeometry x="220" y="280" width="200" height="50" as="geometry"/>
                    &#xa;
                </mxCell>
                &#xa;
            </root>
            &#xa;
        </mxGraphModel>
        &#xa;
    </diagram>
    <diagram name="Checkout Form 2" id="e9BLFENliI81DJ2vJBgf">
        &#xa;
        <mxGraphModel dx="624" dy="531" grid="1" gridSize="10" guides="1" tooltips="1" connect="1" arrows="1" fold="1" page="1" pageScale="1" pageWidth="850" pageHeight="1100" math="0" shadow="0">
            &#xa;
            <root>
                &#xa;
                <mxCell id="A5XrHcQG-8OASFUG_7Fv-0"/>
                &#xa;
                <mxCell id="A5XrHcQG-8OASFUG_7Fv-1" parent="A5XrHcQG-8OASFUG_7Fv-0"/>
                &#xa;
                <mxCell id="A5XrHcQG-8OASFUG_7Fv-2" value="&lt;meta charset=&quot;utf-8&quot;&gt;&lt;span style=&quot;color: rgb(240, 240, 240); font-family: Helvetica; font-size: 17px; font-style: normal; font-variant-ligatures: normal; font-variant-caps: normal; font-weight: 400; letter-spacing: normal; orphans: 2; text-align: center; text-indent: 0px; text-transform: none; widows: 2; word-spacing: 0px; -webkit-text-stroke-width: 0px; background-color: rgb(42, 42, 42); text-decoration-style: initial; text-decoration-color: initial; float: none; display: inline !important;&quot;&gt;STEP 1&lt;/span&gt;" style="whiteSpace=wrap;html=1;" vertex="1" parent="A5XrHcQG-8OASFUG_7Fv-1">
                    &#xa;
                    <mxGeometry x="120" y="32" width="400" height="360" as="geometry"/>
                    &#xa;
                </mxCell>
                &#xa;
                <mxCell id="A5XrHcQG-8OASFUG_7Fv-4" value="&lt;font style=&quot;font-size: 17px&quot;&gt;SEP 2&lt;/font&gt;" style="text;html=1;resizable=0;autosize=1;align=center;verticalAlign=middle;points=[];fillColor=none;strokeColor=none;rounded=0;" vertex="1" parent="A5XrHcQG-8OASFUG_7Fv-1">
                    &#xa;
                    <mxGeometry x="290" y="83" width="60" height="20" as="geometry"/>
                    &#xa;
                </mxCell>
                &#xa;
                <mxCell id="A5XrHcQG-8OASFUG_7Fv-5" value="SEND" style="whiteSpace=wrap;html=1;fillColor=#60a917;strokeColor=#2D7600;fontColor=#ffffff;" vertex="1" parent="A5XrHcQG-8OASFUG_7Fv-1">
                    &#xa;
                    <mxGeometry x="220" y="280" width="200" height="50" as="geometry"/>
                    &#xa;
                </mxCell>
                &#xa;
                <mxCell id="A5XrHcQG-8OASFUG_7Fv-6" value="Enter Your Email Address" style="whiteSpace=wrap;html=1;fontSize=12;" vertex="1" parent="A5XrHcQG-8OASFUG_7Fv-1">
                    &#xa;
                    <mxGeometry x="205" y="130" width="230" height="50" as="geometry"/>
                    &#xa;
                </mxCell>
                &#xa;
                <mxCell id="A5XrHcQG-8OASFUG_7Fv-7" value="&lt;font style=&quot;font-size: 12px&quot;&gt;Enter Reference Number&lt;/font&gt;" style="whiteSpace=wrap;html=1;fontSize=17;" vertex="1" parent="A5XrHcQG-8OASFUG_7Fv-1">
                    &#xa;
                    <mxGeometry x="205" y="200" width="230" height="50" as="geometry"/>
                    &#xa;
                </mxCell>
                &#xa;
                <mxCell id="c8vF2_Qpxe2OmRLmTXIi-0" value="Text" style="text;html=1;resizable=0;autosize=1;align=center;verticalAlign=middle;points=[];fillColor=none;strokeColor=none;rounded=0;fontSize=12;" vertex="1" parent="A5XrHcQG-8OASFUG_7Fv-1">
                    &#xa;
                    <mxGeometry x="120" y="600" width="40" height="20" as="geometry"/>
                    &#xa;
                </mxCell>
                &#xa;
            </root>
            &#xa;
        </mxGraphModel>
        &#xa;
    </diagram>
</mxfile>